<svg width="257" height="239" viewBox="0 0 257 239" fill="none" xmlns="http://www.w3.org/2000/svg">
<path d="M15.0851 56.4293C15.0851 56.4293 117.328 12.2915 124.033 12.2915C130.737 12.2915 234.657 55.8706 234.657 55.8706L246.948 48.0487C246.948 48.0487 129.62 0 124.033 0C118.446 0 3.91095 49.7249 3.91095 49.7249L15.0851 56.4293Z" fill="#464152"/>
<path d="M124.591 11.7328C116.77 11.1741 16.7611 55.3119 16.7611 55.3119L16.2025 221.806C16.2025 221.806 20.1133 225.717 25.1417 225.159C30.1701 224.6 117.887 173.758 124.591 173.758C131.296 173.758 221.248 225.159 227.952 225.159C234.657 225.159 237.45 222.365 237.45 222.365L234.657 55.3119C234.657 55.3119 132.413 12.2915 124.591 11.7328Z" fill="#282238"/>
<path d="M4.46967 49.7249L16.7612 55.5V222.365C16.7612 222.365 13.0452 220.348 10.6154 220.13C8.2249 219.916 4.46967 220.13 4.46967 220.13V49.7249Z" fill="#362F4B"/>
<path d="M246.948 48.0487L234.657 55.3119L236.333 222.365C236.333 222.365 240.324 221.5 242 221.5C243.676 221.5 246.948 222.365 246.948 222.365V48.0487Z" fill="#362F4B"/>
<path d="M246.948 48.6074V222.924C246.948 222.924 243.372 221.849 241.361 221.806C239.137 221.759 236.333 222.924 236.333 222.924" stroke="#282238" stroke-linecap="round"/>
<path d="M4.46967 50.2836V220.13C4.46967 220.13 8.58765 219.724 11.1741 220.13C13.4245 220.484 16.7612 221.806 16.7612 221.806" stroke="#282238" stroke-linecap="round"/>
<path d="M30.1702 65.2418C30.1702 63.627 31.1411 62.1705 32.6317 61.5495L105.085 31.3604C107.72 30.2626 110.624 32.1984 110.624 35.0527V90.7209C110.624 92.2932 109.703 93.7198 108.27 94.3667L35.8158 127.071C33.1684 128.266 30.1702 126.33 30.1702 123.426V65.2418Z" fill="#524969"/>
<line x1="1.5" y1="-1.5" x2="25.2128" y2="-1.5" transform="matrix(-0.91002 -0.414565 -0.414565 0.91002 219.023 170.715)" stroke="#524969" stroke-width="3" stroke-linecap="round"/>
<line x1="1.5" y1="-1.5" x2="54.354" y2="-1.5" transform="matrix(-0.91002 -0.414565 -0.414565 0.91002 193.609 159.138)" stroke="#524969" stroke-width="3" stroke-linecap="round"/>
<line x1="1.5" y1="-1.5" x2="56.7824" y2="-1.5" transform="matrix(-0.91002 -0.414565 -0.414565 0.91002 195.215 181.972)" stroke="#524969" stroke-width="3" stroke-linecap="round"/>
<line x1="1.5" y1="-1.5" x2="42.2118" y2="-1.5" transform="matrix(-0.91002 -0.414565 -0.414565 0.91002 219.559 178.327)" stroke="#524969" stroke-width="3" stroke-linecap="round"/>
<line x1="1.5" y1="-1.5" x2="36.1407" y2="-1.5" transform="matrix(-0.91002 -0.414565 -0.414565 0.91002 177.57 159.198)" stroke="#524969" stroke-width="3" stroke-linecap="round"/>
<line x1="1.5" y1="-1.5" x2="20.3559" y2="-1.5" transform="matrix(-0.91002 -0.414565 -0.414565 0.91002 218.989 185.435)" stroke="#524969" stroke-width="3" stroke-linecap="round"/>
<line x1="1.5" y1="-1.5" x2="19.1417" y2="-1.5" transform="matrix(-0.91002 -0.414565 -0.414565 0.91002 179.176 182.032)" stroke="#524969" stroke-width="3" stroke-linecap="round"/>
<line x1="1.5" y1="-1.5" x2="15.499" y2="-1.5" transform="matrix(-0.91002 -0.414565 -0.414565 0.91002 158.182 172.468)" stroke="#524969" stroke-width="3" stroke-linecap="round"/>
<line x1="1.5" y1="-1.5" x2="20.3559" y2="-1.5" transform="matrix(-0.91002 -0.414565 -0.414565 0.91002 218.42 192.542)" stroke="#524969" stroke-width="3" stroke-linecap="round"/>
<line x1="1.5" y1="-1.5" x2="28.8554" y2="-1.5" transform="matrix(-0.91002 -0.414565 -0.414565 0.91002 197.995 175.87)" stroke="#524969" stroke-width="3" stroke-linecap="round"/>
<line x1="1.5" y1="-1.5" x2="37.355" y2="-1.5" transform="matrix(-0.91002 -0.414565 -0.414565 0.91002 218.955 200.154)" stroke="#524969" stroke-width="3" stroke-linecap="round"/>
<line x1="1.5" y1="-1.5" x2="26.427" y2="-1.5" transform="matrix(-0.91002 -0.414565 -0.414565 0.91002 168.161 162.279)" stroke="#524969" stroke-width="3" stroke-linecap="round"/>
<line x1="1.5" y1="-1.5" x2="24.7055" y2="-1.5" transform="matrix(-0.908985 -0.416829 -0.416829 0.908985 218.764 116.481)" stroke="#524969" stroke-width="3" stroke-linecap="round"/>
<line x1="1.5" y1="-1.5" x2="53.2932" y2="-1.5" transform="matrix(-0.908985 -0.416829 -0.416829 0.908985 193.861 105.062)" stroke="#524969" stroke-width="3" stroke-linecap="round"/>
<line x1="1.5" y1="-1.5" x2="55.6756" y2="-1.5" transform="matrix(-0.908985 -0.416829 -0.416829 0.908985 195.221 127.813)" stroke="#524969" stroke-width="3" stroke-linecap="round"/>
<line x1="1.5" y1="-1.5" x2="41.3817" y2="-1.5" transform="matrix(-0.908985 -0.416829 -0.416829 0.908985 219.217 124.065)" stroke="#524969" stroke-width="3" stroke-linecap="round"/>
<line x1="1.5" y1="-1.5" x2="41.3817" y2="-1.5" transform="matrix(-0.908985 -0.416829 -0.416829 0.908985 218.866 153.407)" stroke="#524969" stroke-width="3" stroke-linecap="round"/>
<line x1="1.5" y1="-1.5" x2="54.4844" y2="-1.5" transform="matrix(-0.908985 -0.416829 -0.416829 0.908985 196.582 150.564)" stroke="#524969" stroke-width="3" stroke-linecap="round"/>
<line x1="1.5" y1="-1.5" x2="35.4259" y2="-1.5" transform="matrix(-0.908985 -0.416829 -0.416829 0.908985 178.073 105.198)" stroke="#524969" stroke-width="3" stroke-linecap="round"/>
<line x1="1.5" y1="-1.5" x2="35.4259" y2="-1.5" transform="matrix(-0.908985 -0.416829 -0.416829 0.908985 177.722 134.54)" stroke="#524969" stroke-width="3" stroke-linecap="round"/>
<line x1="1.5" y1="-1.5" x2="19.9408" y2="-1.5" transform="matrix(-0.908985 -0.416829 -0.416829 0.908985 218.588 131.152)" stroke="#524969" stroke-width="3" stroke-linecap="round"/>
<line x1="1.5" y1="-1.5" x2="18.7497" y2="-1.5" transform="matrix(-0.908985 -0.416829 -0.416829 0.908985 179.434 127.949)" stroke="#524969" stroke-width="3" stroke-linecap="round"/>
<line x1="1.5" y1="-1.5" x2="15.1762" y2="-1.5" transform="matrix(-0.908985 -0.416829 -0.416829 0.908985 158.862 118.516)" stroke="#524969" stroke-width="3" stroke-linecap="round"/>
<line x1="1.5" y1="-1.5" x2="19.9408" y2="-1.5" transform="matrix(-0.908985 -0.416829 -0.416829 0.908985 217.959 138.24)" stroke="#524969" stroke-width="3" stroke-linecap="round"/>
<line x1="1.5" y1="-1.5" x2="19.9408" y2="-1.5" transform="matrix(-0.908985 -0.416829 -0.416829 0.908985 218.237 160.495)" stroke="#524969" stroke-width="3" stroke-linecap="round"/>
<line x1="1.5" y1="-1.5" x2="28.2789" y2="-1.5" transform="matrix(-0.908985 -0.416829 -0.416829 0.908985 198.016 121.719)" stroke="#524969" stroke-width="3" stroke-linecap="round"/>
<line x1="1.5" y1="-1.5" x2="36.617" y2="-1.5" transform="matrix(-0.908985 -0.416829 -0.416829 0.908985 218.413 145.823)" stroke="#524969" stroke-width="3" stroke-linecap="round"/>
<line x1="1.5" y1="-1.5" x2="25.8966" y2="-1.5" transform="matrix(-0.908985 -0.416829 -0.416829 0.908985 168.782 108.313)" stroke="#524969" stroke-width="3" stroke-linecap="round"/>
<line x1="36.6343" y1="140.939" x2="56.2099" y2="131.849" stroke="#524969" stroke-width="3" stroke-linecap="round"/>
<line x1="59.9443" y1="130.115" x2="103.844" y2="109.731" stroke="#524969" stroke-width="3" stroke-linecap="round"/>
<line x1="59.2939" y1="152.593" x2="105.22" y2="131.267" stroke="#524969" stroke-width="3" stroke-linecap="round"/>
<line x1="36.4175" y1="148.431" x2="70.1818" y2="132.753" stroke="#524969" stroke-width="3" stroke-linecap="round"/>
<line x1="37.5771" y1="177.461" x2="71.3414" y2="161.783" stroke="#524969" stroke-width="3" stroke-linecap="round"/>
<line x1="58.6434" y1="175.071" x2="103.556" y2="154.216" stroke="#524969" stroke-width="3" stroke-linecap="round"/>
<line x1="74.9297" y1="130.549" x2="103.627" y2="117.223" stroke="#524969" stroke-width="3" stroke-linecap="round"/>
<line x1="76.0894" y1="159.578" x2="104.786" y2="146.253" stroke="#524969" stroke-width="3" stroke-linecap="round"/>
<line x1="37.2141" y1="155.453" x2="52.7358" y2="148.246" stroke="#524969" stroke-width="3" stroke-linecap="round"/>
<line x1="74.2792" y1="153.027" x2="88.7874" y2="146.29" stroke="#524969" stroke-width="3" stroke-linecap="round"/>
<line x1="93.5354" y1="144.085" x2="105.003" y2="138.76" stroke="#524969" stroke-width="3" stroke-linecap="round"/>
<line x1="38.0107" y1="162.476" x2="53.5324" y2="155.268" stroke="#524969" stroke-width="3" stroke-linecap="round"/>
<line x1="38.3737" y1="184.483" x2="53.8954" y2="177.276" stroke="#524969" stroke-width="3" stroke-linecap="round"/>
<line x1="56.4703" y1="146.512" x2="79.0863" y2="136.01" stroke="#524969" stroke-width="3" stroke-linecap="round"/>
<line x1="37.7939" y1="169.968" x2="67.5044" y2="156.172" stroke="#524969" stroke-width="3" stroke-linecap="round"/>
<line x1="83.8342" y1="133.806" x2="104.423" y2="124.245" stroke="#524969" stroke-width="3" stroke-linecap="round"/>
<line x1="1.5" y1="-1.5" x2="25.0577" y2="-1.5" transform="matrix(-0.92537 -0.379064 -0.379064 0.92537 218.486 62.8013)" stroke="#524969" stroke-width="3" stroke-linecap="round"/>
<line x1="1.5" y1="-1.5" x2="54.0298" y2="-1.5" transform="matrix(-0.92537 -0.379064 -0.379064 0.92537 192.793 52.2766)" stroke="#524969" stroke-width="3" stroke-linecap="round"/>
<line x1="1.5" y1="-1.5" x2="56.4442" y2="-1.5" transform="matrix(-0.92537 -0.379064 -0.379064 0.92537 195.222 75.0073)" stroke="#524969" stroke-width="3" stroke-linecap="round"/>
<line x1="1.5" y1="-1.5" x2="41.9581" y2="-1.5" transform="matrix(-0.92537 -0.379064 -0.379064 0.92537 219.295 70.3782)" stroke="#524969" stroke-width="3" stroke-linecap="round"/>
<line x1="1.5" y1="-1.5" x2="41.9581" y2="-1.5" transform="matrix(-0.92537 -0.379064 -0.379064 0.92537 220.3 99.7706)" stroke="#524969" stroke-width="3" stroke-linecap="round"/>
<line x1="1.5" y1="-1.5" x2="55.237" y2="-1.5" transform="matrix(-0.92537 -0.379064 -0.379064 0.92537 197.652 97.7381)" stroke="#524969" stroke-width="3" stroke-linecap="round"/>
<line x1="1.5" y1="-1.5" x2="35.9223" y2="-1.5" transform="matrix(-0.92537 -0.379064 -0.379064 0.92537 176.846 52.9896)" stroke="#524969" stroke-width="3" stroke-linecap="round"/>
<line x1="1.5" y1="-1.5" x2="35.9223" y2="-1.5" transform="matrix(-0.92537 -0.379064 -0.379064 0.92537 177.851 82.382)" stroke="#524969" stroke-width="3" stroke-linecap="round"/>
<line x1="1.5" y1="-1.5" x2="20.2291" y2="-1.5" transform="matrix(-0.92537 -0.379064 -0.379064 0.92537 218.988 77.4975)" stroke="#524969" stroke-width="3" stroke-linecap="round"/>
<line x1="1.5" y1="-1.5" x2="19.0219" y2="-1.5" transform="matrix(-0.92537 -0.379064 -0.379064 0.92537 179.276 75.7203)" stroke="#524969" stroke-width="3" stroke-linecap="round"/>
<line x1="1.5" y1="-1.5" x2="15.4004" y2="-1.5" transform="matrix(-0.92537 -0.379064 -0.379064 0.92537 158.051 67.026)" stroke="#524969" stroke-width="3" stroke-linecap="round"/>
<line x1="1.5" y1="-1.5" x2="20.2291" y2="-1.5" transform="matrix(-0.92537 -0.379064 -0.379064 0.92537 218.681 84.6168)" stroke="#524969" stroke-width="3" stroke-linecap="round"/>
<line x1="1.5" y1="-1.5" x2="20.2291" y2="-1.5" transform="matrix(-0.92537 -0.379064 -0.379064 0.92537 219.993 106.89)" stroke="#524969" stroke-width="3" stroke-linecap="round"/>
<line x1="1.5" y1="-1.5" x2="28.6792" y2="-1.5" transform="matrix(-0.92537 -0.379064 -0.379064 0.92537 197.764 68.8032)" stroke="#524969" stroke-width="3" stroke-linecap="round"/>
<line x1="1.5" y1="-1.5" x2="37.1294" y2="-1.5" transform="matrix(-0.92537 -0.379064 -0.379064 0.92537 219.491 92.1937)" stroke="#524969" stroke-width="3" stroke-linecap="round"/>
<line x1="1.5" y1="-1.5" x2="26.2649" y2="-1.5" transform="matrix(-0.92537 -0.379064 -0.379064 0.92537 167.602 56.4481)" stroke="#524969" stroke-width="3" stroke-linecap="round"/>
<g filter="url(#filter0_f)">
<circle cx="132.5" cy="119.5" r="69.5" fill="#D0CCCC" fill-opacity="0.8"/>
</g>
<path fill-rule="evenodd" clip-rule="evenodd" d="M146.915 134.775L144.494 139.01C143.764 140.286 142.413 141.073 140.951 141.073H122.399C120.937 141.073 119.586 140.286 118.857 139.01L116.435 134.775H146.915ZM153.695 122.918L149.425 130.386H113.925L109.655 122.918H153.695ZM149.582 111.324L153.702 118.53H109.648L113.768 111.324H149.582ZM140.951 100.364C142.413 100.364 143.764 101.15 144.494 102.426L147.072 106.935H116.278L118.857 102.426C119.586 101.15 120.937 100.364 122.399 100.364H140.951Z" fill="#00435B"/>
<path d="M95.3973 98.3983C93.3421 88.3618 92.9011 80.6638 94.2295 75.074C95.0196 71.7496 96.4641 69.0375 98.6605 67.0808C100.979 65.015 103.911 64.0013 107.205 64.0013C112.64 64.0013 118.353 66.4972 124.458 71.2386C126.948 73.1725 129.533 75.5035 132.217 78.233C132.43 77.956 132.672 77.6947 132.941 77.4533C140.529 70.6427 146.918 66.4111 152.383 64.7796C155.632 63.8095 158.682 63.7171 161.46 64.6586C164.393 65.6524 166.729 67.7069 168.378 70.5845C171.098 75.3335 171.816 81.5738 170.801 89.279C170.388 92.4197 169.681 95.8409 168.682 99.5477C169.059 99.5936 169.437 99.6777 169.811 99.8025C179.439 103.016 186.257 106.471 190.384 110.421C192.84 112.77 194.444 115.386 195.024 118.282C195.635 121.338 195.039 124.403 193.392 127.279C190.677 132.021 185.684 135.761 178.571 138.724C175.715 139.913 172.483 140.99 168.873 141.959C169.037 142.334 169.165 142.732 169.251 143.149C171.306 153.186 171.747 160.884 170.418 166.473C169.628 169.798 168.184 172.51 165.987 174.467C163.669 176.532 160.737 177.546 157.443 177.546C152.008 177.546 146.295 175.05 140.19 170.309C137.673 168.354 135.06 165.994 132.346 163.227C132.066 163.667 131.723 164.076 131.318 164.44C123.729 171.251 117.34 175.482 111.876 177.114C108.627 178.084 105.576 178.177 102.798 177.235C99.8658 176.241 97.5293 174.187 95.8809 171.309C93.1604 166.56 92.4429 160.32 93.4572 152.615C93.8856 149.36 94.6289 145.805 95.6855 141.943C95.2725 141.901 94.8578 141.813 94.4477 141.676C84.8196 138.462 78.0018 135.007 73.8742 131.058C71.4184 128.708 69.8147 126.092 69.235 123.197C68.6231 120.14 69.2197 117.075 70.8663 114.199C73.5817 109.457 78.5746 105.717 85.6877 102.755C88.6289 101.53 91.9682 100.424 95.7096 99.4326C95.5763 99.104 95.471 98.7584 95.3973 98.3983Z" fill="#002B3B"/>
<path fill-rule="evenodd" clip-rule="evenodd" d="M120.124 95.2009C125.115 94.8009 130.259 94.6242 135.557 94.6709V94.6709C136.56 94.6798 137.381 93.8678 137.389 92.8574C137.393 92.4318 137.249 92.0183 136.983 91.6879C124.925 76.7361 114.997 69.2602 107.198 69.2602C99.1454 69.2602 96.8483 78.1992 100.306 96.0773V96.0773C100.496 97.0573 101.43 97.7033 102.406 97.5291C108.562 96.4303 114.468 95.6542 120.124 95.2009Z" fill="#FF4154"/>
<path fill-rule="evenodd" clip-rule="evenodd" d="M148.141 97.6619C151.023 101.845 153.79 106.274 156.44 110.951V110.951C156.937 111.829 158.047 112.134 158.918 111.633C159.284 111.423 159.565 111.092 159.715 110.696C166.536 92.6783 167.969 80.2526 164.016 73.4189C159.936 66.367 151.046 68.8053 137.346 80.734V80.734C136.593 81.3899 136.505 82.5341 137.148 83.2997C141.218 88.1455 144.882 92.9329 148.141 97.6619Z" fill="#FF4154"/>
<path fill-rule="evenodd" clip-rule="evenodd" d="M160.238 122.833C158.081 127.399 155.656 131.988 152.964 136.6C152.456 137.471 152.745 138.593 153.61 139.105C153.976 139.322 154.406 139.402 154.825 139.333C173.621 136.22 184.972 131.253 188.876 124.429C192.908 117.383 186.424 110.924 169.423 105.053V105.053C168.486 104.73 167.465 105.221 167.126 106.158C164.981 112.096 162.685 117.655 160.238 122.833Z" fill="#FF4154"/>
<path fill-rule="evenodd" clip-rule="evenodd" d="M144.816 146.464C139.825 146.864 134.68 147.041 129.383 146.994V146.994C128.38 146.985 127.559 147.797 127.55 148.808C127.547 149.233 127.69 149.647 127.957 149.977C140.014 164.929 149.943 172.405 157.742 172.405C165.794 172.405 168.091 163.466 164.634 145.588V145.588C164.444 144.608 163.51 143.962 162.533 144.136C156.377 145.235 150.471 146.011 144.816 146.464Z" fill="#FF4154"/>
<path fill-rule="evenodd" clip-rule="evenodd" d="M116.117 144.232C113.235 140.049 110.469 135.619 107.818 130.943V130.943C107.321 130.065 106.212 129.76 105.34 130.261C104.975 130.471 104.693 130.802 104.543 131.198C97.7226 149.215 96.2892 161.641 100.243 168.475C104.323 175.527 113.213 173.088 126.912 161.16V161.16C127.665 160.504 127.754 159.359 127.111 158.594C123.04 153.748 119.376 148.961 116.117 144.232Z" fill="#FF4154"/>
<path fill-rule="evenodd" clip-rule="evenodd" d="M104.02 118.374C106.177 113.808 108.602 109.219 111.294 104.607C111.803 103.736 111.514 102.615 110.649 102.103C110.283 101.886 109.853 101.805 109.433 101.875C90.6371 104.987 79.2868 109.955 75.3825 116.778C71.3502 123.825 77.8347 130.284 94.836 136.154H94.836C95.7726 136.478 96.7939 135.986 97.1324 135.049C99.2777 129.111 101.574 123.553 104.02 118.374Z" fill="#FF4154"/>
<path fill-rule="evenodd" clip-rule="evenodd" d="M123.89 100.592H139.463C141.741 100.592 143.844 101.819 144.978 103.808L152.797 117.531C153.922 119.505 153.922 121.932 152.797 123.906L144.978 137.628C143.844 139.617 141.741 140.844 139.463 140.844H123.89C121.613 140.844 119.509 139.617 118.375 137.628L110.556 123.906C109.431 121.932 109.431 119.505 110.556 117.531L118.375 103.808C119.509 101.819 121.613 100.592 123.89 100.592ZM137.09 104.734C139.369 104.734 141.473 105.962 142.606 107.953L148.059 117.534C149.181 119.506 149.181 121.93 148.059 123.903L142.606 133.483C141.473 135.474 139.369 136.702 137.09 136.702H126.264C123.985 136.702 121.88 135.474 120.747 133.483L115.295 123.903C114.172 121.93 114.172 119.506 115.295 117.534L120.747 107.953C121.88 105.962 123.985 104.734 126.264 104.734H137.09ZM134.532 109.264H128.822C126.546 109.264 124.443 110.489 123.309 112.477L120.427 117.528C119.3 119.503 119.3 121.933 120.427 123.908L123.309 128.959C124.443 130.947 126.546 132.172 128.822 132.172H134.532C136.808 132.172 138.911 130.947 140.045 128.959L142.926 123.908C144.053 121.933 144.053 119.503 142.926 117.528L140.045 112.477C138.911 110.489 136.808 109.264 134.532 109.264ZM132.068 113.6C134.343 113.6 136.444 114.823 137.579 116.809L137.987 117.524C139.118 119.501 139.118 121.935 137.987 123.912L137.579 124.627C136.444 126.613 134.343 127.837 132.068 127.837H131.285C129.011 127.837 126.909 126.613 125.774 124.627L125.366 123.912C124.236 121.935 124.236 119.501 125.366 117.524L125.774 116.809C126.909 114.823 129.011 113.6 131.285 113.6H132.068ZM131.678 117.871C130.665 117.871 129.732 118.413 129.226 119.294C128.721 120.175 128.721 121.261 129.226 122.142C129.732 123.023 130.665 123.565 131.676 123.565C132.688 123.565 133.622 123.023 134.127 122.142C134.633 121.261 134.633 120.175 134.127 119.294C133.622 118.413 132.688 117.871 131.678 117.871ZM108.74 120.718H113.83Z" fill="#FFD94C"/>
<defs>
<filter id="filter0_f" x="13" y="0" width="239" height="239" filterUnits="userSpaceOnUse" color-interpolation-filters="sRGB">
<feFlood flood-opacity="0" result="BackgroundImageFix"/>
<feBlend mode="normal" in="SourceGraphic" in2="BackgroundImageFix" result="shape"/>
<feGaussianBlur stdDeviation="25" result="effect1_foregroundBlur"/>
</filter>
</defs>
</svg>
